<svg fill="none" height="24" viewBox="0 0 24 24" width="24" xmlns="http://www.w3.org/2000/svg"><path d="m10.3125 7.5h3.375v-.9375c0-.30469.2344-.5625.5625-.5625.3047 0 .5625.25781.5625.5625v.9375h.9375c.8203 0 1.5.67969 1.5 1.5v7.5c0 .8438-.6797 1.5-1.5 1.5h-7.5c-.84375 0-1.5-.6562-1.5-1.5v-7.5c0-.82031.65625-1.5 1.5-1.5h.9375v-.9375c0-.30469.23438-.5625.5625-.5625.3047 0 .5625.25781.5625.5625zm-2.4375 9c0 .2109.16406.375.375.375h7.5c.1875 0 .375-.1641.375-.375v-6h-8.25z" fill="#000" fill-opacity=".6"/></svg>