<svg fill="none" height="24" viewBox="0 0 24 24" width="24" xmlns="http://www.w3.org/2000/svg"><path d="m11.4375 8.8125c0-.30469.2344-.5625.5625-.5625.3047 0 .5625.25781.5625.5625v2.9063l1.9922 1.3124c.2578.1876.3281.5391.1406.7969-.1641.2578-.5156.3281-.7734.1407l-2.25-1.5c-.1407-.0938-.2344-.2813-.2344-.4688zm.5625-2.8125c3.3047 0 6 2.69531 6 6 0 3.3281-2.6953 6-6 6-3.32812 0-6-2.6719-6-6 0-3.30469 2.67188-6 6-6zm-4.875 6c0 2.6953 2.17969 4.875 4.875 4.875 2.6719 0 4.875-2.1797 4.875-4.875 0-2.67188-2.2031-4.875-4.875-4.875-2.69531 0-4.875 2.20312-4.875 4.875z" fill="#000" fill-opacity=".6"/></svg>