<svg fill="none" viewBox="0 0 24 24" xmlns="http://www.w3.org/2000/svg"><path d="m13 7.25c0-.39844.3281-.75.75-.75h2.9766c.1172 0 .2109.02344.3046.07031.0704.02344.1641.09375.2344.16407.1406.14062.211.32812.2344.51562v3c0 .4219-.3516.75-.75.75-.4219 0-.75-.3281-.75-.75v-1.17188l-3.9844 3.96098c-.2812.3047-.7734.3047-1.0547 0-.3047-.2813-.3047-.7735 0-1.0547l3.961-3.9844h-1.1719c-.4219 0-.75-.32812-.75-.75zm-6 1.5c0-.82031.65625-1.5 1.5-1.5h2.25c.3984 0 .75.35156.75.75 0 .42188-.3516.75-.75.75h-2.25v6.75h6.75v-2.25c0-.3984.3281-.75.75-.75.3984 0 .75.3516.75.75v2.25c0 .8438-.6797 1.5-1.5 1.5h-6.75c-.84375 0-1.5-.6562-1.5-1.5z" fill="#167baa"/></svg>