<svg fill="none" height="24" viewBox="0 0 24 24" width="24" xmlns="http://www.w3.org/2000/svg"><path d="m14.3203 16.875.7735-5.625h1.1484l-.8906 6.2812c-.0235.2813-.2813.4688-.5391.4688h-5.625c-.28125 0-.53906-.1875-.5625-.4688l-.89062-6.2812h1.125l.79687 5.625zm2.3672-7.5c.3047 0 .5391.23438.5391.5625 0 .3047-.2578.5625-.5625.5625h-9.37504c-.30468 0-.53906-.2812-.53906-.5625 0-.30469.23438-.5625.53906-.5625h1.33594v-.1875c0-1.40625 1.05469-2.57812 2.4141-2.76562.164-.23438.4453-.42188.7734-.42188h1.875c.5156 0 .9375.42188.9375.9375 0 .53906-.4219.9375-.9375.9375h-1.875c-.3047 0-.5391-.11719-.7266-.32812-.7734.16406-1.3359.84374-1.3359 1.64062v.1875z" fill="#000" fill-opacity=".6"/></svg>